HIERARCHY
ROOT Hips
{
	OFFSET 0.000000 87.230942 0.000000
	CHANNELS 6 Xposition Yposition Zposition Xrotation Yrotation Zrotation
	JOINT Pelvis
	{
		OFFSET 0.000000 0.000000 0.000000
		CHANNELS 3 Xrotation Yrotation Zrotation
		JOINT LeftUpLeg
		{
			OFFSET 12.017000 -9.376404 -2.439400
			CHANNELS 3 Xrotation Yrotation Zrotation
			JOINT LeftLeg
			{
				OFFSET -0.007312 -32.846973 2.110600
				CHANNELS 3 Xrotation Yrotation Zrotation
				JOINT LeftFoot
				{
					OFFSET 0.007312 -32.065170 -0.570400
					CHANNELS 3 Xrotation Yrotation Zrotation
					JOINT LeftToeBase
					{
						OFFSET 0.728300 -11.045900 13.180700
						CHANNELS 3 Xrotation Yrotation Zrotation
						End Site
						{
							OFFSET 0.000000 17.212589 0.000000
						}
					}
				}
				JOINT LeftPantLeg
				{
					OFFSET 0.002788 -16.709013 -3.143600
					CHANNELS 3 Xrotation Yrotation Zrotation
					End Site
					{
						OFFSET -0.605125 24.528742 0.000000
					}
				}
			}
			JOINT Left_Butt
			{
				OFFSET -6.630234 1.326584 -3.183700
				CHANNELS 3 Xrotation Yrotation Zrotation
				End Site
				{
					OFFSET -0.498041 20.188049 0.000000
				}
			}
		}
		JOINT RightUpLeg
		{
			OFFSET -11.717000 -9.376404 -2.439400
			CHANNELS 3 Xrotation Yrotation Zrotation
			JOINT RightLeg
			{
				OFFSET -0.003241 -32.846912 2.110600
				CHANNELS 3 Xrotation Yrotation Zrotation
				JOINT RightFoot
				{
					OFFSET 0.003241 -32.065136 -0.570500
					CHANNELS 3 Xrotation Yrotation Zrotation
					JOINT RightToeBase
					{
						OFFSET -0.728300 -11.045901 13.180700
						CHANNELS 3 Xrotation Yrotation Zrotation
						End Site
						{
							OFFSET 0.000000 17.212593 0.000000
						}
					}
				}
				JOINT RightPantLeg
				{
					OFFSET 0.008142 -16.708982 -3.143700
					CHANNELS 3 Xrotation Yrotation Zrotation
					End Site
					{
						OFFSET 0.605088 24.528715 0.000000
					}
				}
			}
			JOINT Right_Butt
			{
				OFFSET 6.630732 1.326584 -3.183700
				CHANNELS 3 Xrotation Yrotation Zrotation
				End Site
				{
					OFFSET 0.498015 20.188240 0.000000
				}
			}
		}
	}
	JOINT Spine
	{
		OFFSET -0.062400 7.848404 3.918300
		CHANNELS 3 Xrotation Yrotation Zrotation
		JOINT Spine1
		{
			OFFSET -0.072800 11.422302 0.713400
			CHANNELS 3 Xrotation Yrotation Zrotation
			JOINT Spine2
			{
				OFFSET -0.083200 13.054001 -1.931600
				CHANNELS 3 Xrotation Yrotation Zrotation
				JOINT Neck
				{
					OFFSET -0.092200 14.121796 -5.138800
					CHANNELS 3 Xrotation Yrotation Zrotation
					JOINT Head
					{
						OFFSET 0.000200 10.447403 -0.842000
						CHANNELS 3 Xrotation Yrotation Zrotation
						JOINT Visor
						{
							OFFSET 0.457100 25.671204 16.550400
							CHANNELS 3 Xrotation Yrotation Zrotation
							End Site
							{
								OFFSET 0.000000 26.061493 0.000000
							}
						}
						JOINT HairMidA
						{
							OFFSET 0.459400 31.585403 8.437400
							CHANNELS 3 Xrotation Yrotation Zrotation
							End Site
							{
								OFFSET 0.000000 26.061493 0.000000
							}
						}
						JOINT HairMidB
						{
							OFFSET 0.464000 33.309204 -8.389700
							CHANNELS 3 Xrotation Yrotation Zrotation
							End Site
							{
								OFFSET 0.000000 26.061493 0.000000
							}
						}
						JOINT HairMidC
						{
							OFFSET 0.466600 27.991196 -17.375099
							CHANNELS 3 Xrotation Yrotation Zrotation
							End Site
							{
								OFFSET 0.000000 26.061493 0.000000
							}
						}
						JOINT HairMidD
						{
							OFFSET 0.467700 17.888092 -21.169500
							CHANNELS 3 Xrotation Yrotation Zrotation
							End Site
							{
								OFFSET 0.000000 26.061493 0.000000
							}
						}
						JOINT HairMidE
						{
							OFFSET 5.325700 3.514603 -14.369699
							CHANNELS 3 Xrotation Yrotation Zrotation
							End Site
							{
								OFFSET 0.000000 26.061493 0.000000
							}
						}
						JOINT HairMidF
						{
							OFFSET -4.394100 3.514603 -14.372400
							CHANNELS 3 Xrotation Yrotation Zrotation
							End Site
							{
								OFFSET 0.000000 26.061493 0.000000
							}
						}
						JOINT HairLeftA
						{
							OFFSET 15.319900 25.746506 2.623300
							CHANNELS 3 Xrotation Yrotation Zrotation
							End Site
							{
								OFFSET 0.000000 26.061493 0.000000
							}
						}
						JOINT HairLeftB
						{
							OFFSET 12.619500 29.289398 -8.731499
							CHANNELS 3 Xrotation Yrotation Zrotation
							End Site
							{
								OFFSET 0.000000 26.061493 0.000000
							}
						}
						JOINT HairLeftC
						{
							OFFSET 15.714800 15.959900 2.909800
							CHANNELS 3 Xrotation Yrotation Zrotation
							End Site
							{
								OFFSET 0.000000 26.061493 0.000000
							}
						}
						JOINT HairLeftD
						{
							OFFSET 16.101700 18.437408 -7.553200
							CHANNELS 3 Xrotation Yrotation Zrotation
							End Site
							{
								OFFSET 0.000000 26.061493 0.000000
							}
						}
						JOINT HairLeftE
						{
							OFFSET 9.731900 17.915009 -18.316799
							CHANNELS 3 Xrotation Yrotation Zrotation
							End Site
							{
								OFFSET 0.000000 26.061493 0.000000
							}
						}
						JOINT HairLeftF
						{
							OFFSET 11.204300 4.953598 -9.668100
							CHANNELS 3 Xrotation Yrotation Zrotation
							End Site
							{
								OFFSET 0.000000 26.061493 0.000000
							}
						}
						JOINT HairRightA
						{
							OFFSET -14.397900 25.746307 2.615100
							CHANNELS 3 Xrotation Yrotation Zrotation
							End Site
							{
								OFFSET 0.000000 26.061493 0.000000
							}
						}
						JOINT HairRightB
						{
							OFFSET -11.691200 29.289200 -8.738199
							CHANNELS 3 Xrotation Yrotation Zrotation
							End Site
							{
								OFFSET 0.000000 26.061493 0.000000
							}
						}
						JOINT HairRightC
						{
							OFFSET -14.792900 15.959702 2.901400
							CHANNELS 3 Xrotation Yrotation Zrotation
							End Site
							{
								OFFSET 0.000000 26.061493 0.000000
							}
						}
						JOINT HairRightD
						{
							OFFSET -15.174000 18.437195 -7.561900
							CHANNELS 3 Xrotation Yrotation Zrotation
							End Site
							{
								OFFSET 0.000000 26.061493 0.000000
							}
						}
						JOINT HairRightE
						{
							OFFSET -8.798200 17.914902 -18.322001
							CHANNELS 3 Xrotation Yrotation Zrotation
							End Site
							{
								OFFSET 0.000000 26.061493 0.000000
							}
						}
						JOINT HairRightF
						{
							OFFSET -10.275200 4.953506 -9.674099
							CHANNELS 3 Xrotation Yrotation Zrotation
							End Site
							{
								OFFSET 0.000000 26.061493 0.000000
							}
						}
					}
				}
				JOINT LeftShoulder
				{
					OFFSET 5.133500 7.341202 -1.867600
					CHANNELS 3 Xrotation Yrotation Zrotation
					JOINT LeftArm
					{
						OFFSET 8.072663 0.936867 -2.176600
						CHANNELS 3 Xrotation Yrotation Zrotation
						JOINT LeftForeArm
						{
							OFFSET 31.271999 0.000000 0.000000
							CHANNELS 3 Xrotation Yrotation Zrotation
							JOINT LeftHand
							{
								OFFSET 31.771030 0.000000 0.000000
								CHANNELS 3 Xrotation Yrotation Zrotation
								JOINT LeftHandThumb1
								{
									OFFSET 2.886520 -2.557846 4.416640
									CHANNELS 3 Xrotation Yrotation Zrotation
									JOINT LeftHandThumb2
									{
										OFFSET 2.371025 -1.368912 1.368911
										CHANNELS 3 Xrotation Yrotation Zrotation
										JOINT LeftHandThumb3
										{
											OFFSET 2.243378 -1.295212 1.295213
											CHANNELS 3 Xrotation Yrotation Zrotation
											End Site
											{
												OFFSET -0.332611 2.876945 0.020015
											}
										}
									}
								}
								JOINT LeftHandIndex1
								{
									OFFSET 8.568985 -0.641945 3.119977
									CHANNELS 3 Xrotation Yrotation Zrotation
									JOINT LeftHandIndex2
									{
										OFFSET 3.348503 0.000000 0.000000
										CHANNELS 3 Xrotation Yrotation Zrotation
										JOINT LeftHandIndex3
										{
											OFFSET 3.314552 0.000000 0.000000
											CHANNELS 3 Xrotation Yrotation Zrotation
											End Site
											{
												OFFSET -1.032898 3.075485 0.678796
											}
										}
									}
								}
								JOINT LeftHandMiddle1
								{
									OFFSET 8.124603 0.000000 0.000000
									CHANNELS 3 Xrotation Yrotation Zrotation
									JOINT LeftHandMiddle2
									{
										OFFSET 4.166275 0.000000 0.000000
										CHANNELS 3 Xrotation Yrotation Zrotation
										JOINT LeftHandMiddle3
										{
											OFFSET 3.018135 0.000000 0.000000
											CHANNELS 3 Xrotation Yrotation Zrotation
											End Site
											{
												OFFSET -1.032700 2.767982 0.617226
											}
										}
									}
								}
								JOINT LeftHandRing1
								{
									OFFSET 8.571686 -0.031357 -2.884048
									CHANNELS 3 Xrotation Yrotation Zrotation
									JOINT LeftHandRing2
									{
										OFFSET 3.671181 0.000000 0.000000
										CHANNELS 3 Xrotation Yrotation Zrotation
										JOINT LeftHandRing3
										{
											OFFSET 2.728851 0.000000 0.000000
											CHANNELS 3 Xrotation Yrotation Zrotation
											End Site
											{
												OFFSET -0.815796 2.539223 0.577389
											}
										}
									}
								}
								JOINT LeftHandPinky1
								{
									OFFSET 7.854515 -0.675232 -5.213020
									CHANNELS 3 Xrotation Yrotation Zrotation
									JOINT LeftHandPinky2
									{
										OFFSET 3.068596 0.000000 0.000000
										CHANNELS 3 Xrotation Yrotation Zrotation
										JOINT LeftHandPinky3
										{
											OFFSET 2.396042 0.000000 0.000000
											CHANNELS 3 Xrotation Yrotation Zrotation
											End Site
											{
												OFFSET -0.524597 2.267998 0.567429
											}
										}
									}
								}
							}
							JOINT LeftSleeve
							{
								OFFSET 19.684509 -0.200119 0.476146
								CHANNELS 3 Xrotation Yrotation Zrotation
								End Site
								{
									OFFSET -0.031017 25.731133 -0.002868
								}
							}
						}
					}
				}
				JOINT RightShoulder
				{
					OFFSET -4.395900 7.341202 -1.870200
					CHANNELS 3 Xrotation Yrotation Zrotation
					JOINT RightArm
					{
						OFFSET -8.071453 0.936867 -2.181100
						CHANNELS 3 Xrotation Yrotation Zrotation
						JOINT RightForeArm
						{
							OFFSET -31.272011 0.000000 0.000000
							CHANNELS 3 Xrotation Yrotation Zrotation
							JOINT RightHand
							{
								OFFSET -31.771019 0.000000 0.000000
								CHANNELS 3 Xrotation Yrotation Zrotation
								JOINT RightHandThumb1
								{
									OFFSET -2.886520 -2.557808 4.416626
									CHANNELS 3 Xrotation Yrotation Zrotation
									JOINT RightHandThumb2
									{
										OFFSET -2.371056 -1.368927 1.368928
										CHANNELS 3 Xrotation Yrotation Zrotation
										JOINT RightHandThumb3
										{
											OFFSET -2.243362 -1.295204 1.295206
											CHANNELS 3 Xrotation Yrotation Zrotation
											End Site
											{
												OFFSET 0.332642 2.876938 0.020047
											}
										}
									}
								}
								JOINT RightHandIndex1
								{
									OFFSET -8.568993 -0.641953 3.120017
									CHANNELS 3 Xrotation Yrotation Zrotation
									JOINT RightHandIndex2
									{
										OFFSET -3.348518 0.000000 0.000000
										CHANNELS 3 Xrotation Yrotation Zrotation
										JOINT RightHandIndex3
										{
											OFFSET -3.314552 0.000000 0.000000
											CHANNELS 3 Xrotation Yrotation Zrotation
											End Site
											{
												OFFSET 1.032898 3.075478 0.678804
											}
										}
									}
								}
								JOINT RightHandMiddle1
								{
									OFFSET -8.124588 0.000000 0.000000
									CHANNELS 3 Xrotation Yrotation Zrotation
									JOINT RightHandMiddle2
									{
										OFFSET -4.166275 0.000000 0.000000
										CHANNELS 3 Xrotation Yrotation Zrotation
										JOINT RightHandMiddle3
										{
											OFFSET -3.018097 0.000000 0.000000
											CHANNELS 3 Xrotation Yrotation Zrotation
											End Site
											{
												OFFSET 1.032700 2.767937 0.617197
											}
										}
									}
								}
								JOINT RightHandRing1
								{
									OFFSET -8.571747 -0.031349 -2.884061
									CHANNELS 3 Xrotation Yrotation Zrotation
									JOINT RightHandRing2
									{
										OFFSET -3.671204 0.000000 0.000000
										CHANNELS 3 Xrotation Yrotation Zrotation
										JOINT RightHandRing3
										{
											OFFSET -2.728874 0.000000 0.000000
											CHANNELS 3 Xrotation Yrotation Zrotation
											End Site
											{
												OFFSET 0.815804 2.539261 0.577413
											}
										}
									}
								}
								JOINT RightHandPinky1
								{
									OFFSET -7.854561 -0.675247 -5.212970
									CHANNELS 3 Xrotation Yrotation Zrotation
									JOINT RightHandPinky2
									{
										OFFSET -3.068550 0.000000 0.000000
										CHANNELS 3 Xrotation Yrotation Zrotation
										JOINT RightHandPinky3
										{
											OFFSET -2.395981 0.000000 0.000000
											CHANNELS 3 Xrotation Yrotation Zrotation
											End Site
											{
												OFFSET 0.524605 2.267952 0.567413
											}
										}
									}
								}
							}
							JOINT RightSleeve
							{
								OFFSET -19.684753 -0.200165 0.476065
								CHANNELS 3 Xrotation Yrotation Zrotation
								End Site
								{
									OFFSET 0.031342 25.731255 -0.002917
								}
							}
						}
					}
				}
				JOINT Hood
				{
					OFFSET 0.369700 14.447800 -5.317800
					CHANNELS 3 Xrotation Yrotation Zrotation
					JOINT Hood1
					{
						OFFSET 0.001700 -5.553802 -5.895100
						CHANNELS 3 Xrotation Yrotation Zrotation
						JOINT Hood2
						{
							OFFSET -0.000200 -8.380501 0.763600
							CHANNELS 3 Xrotation Yrotation Zrotation
							End Site
							{
								OFFSET 0.000000 8.415215 0.000000
							}
						}
					}
				}
				JOINT Left_Breast
				{
					OFFSET 5.682500 3.120102 3.188800
					CHANNELS 3 Xrotation Yrotation Zrotation
					End Site
					{
						OFFSET 0.000000 10.528564 0.000000
					}
				}
				JOINT Right_Breast
				{
					OFFSET -4.947600 3.120102 3.185900
					CHANNELS 3 Xrotation Yrotation Zrotation
					End Site
					{
						OFFSET 0.000000 10.528564 0.000000
					}
				}
				JOINT Whistle
				{
					OFFSET 0.368200 11.471298 0.095400
					CHANNELS 3 Xrotation Yrotation Zrotation
					JOINT Whistle1
					{
						OFFSET -0.002000 -6.349899 7.479800
						CHANNELS 3 Xrotation Yrotation Zrotation
						JOINT Whistle2
						{
							OFFSET -0.001300 -8.217598 4.717600
							CHANNELS 3 Xrotation Yrotation Zrotation
							End Site
							{
								OFFSET 0.000000 9.475479 0.000000
							}
						}
					}
				}
			}
		}
		JOINT Belly
		{
			OFFSET 0.212400 1.593002 3.163700
			CHANNELS 3 Xrotation Yrotation Zrotation
			End Site
			{
				OFFSET 0.000000 7.496635 0.000000
			}
		}
	}
	JOINT FitGrandmaFacialAnim_Joint
	{
		OFFSET 1.150000 -86.211197 -1.220100
		CHANNELS 3 Xrotation Yrotation Zrotation
		End Site
		{
			OFFSET 0.000000 31.666618 0.000000
		}
	}
}
MOTION
Frames: 4
Frame Time: 0.016667
-2.483344 76.986244 0.995868 3.011893 -58.236119 6.473007 0.000000 0.000003 -0.000000 -31.699851 10.715670 25.373630 44.302253 -9.071737 -10.059846 -14.569798 -2.368129 -8.878502 -0.000000 0.000001 -0.000000 0.000000 -0.000000 -0.000000 -0.000003 -0.000001 -0.000001 -29.500898 -9.418085 -26.774427 50.832372 3.539466 -7.809474 -25.433029 1.445617 21.748584 0.000000 0.000001 0.000000 0.000000 -0.000002 0.000001 0.000001 -0.000001 0.000000 11.191396 0.108694 -2.692099 8.434585 0.027705 -5.592322 8.457052 0.027854 -5.591862 -21.555645 25.063369 12.062564 -0.294040 25.465754 -3.208976 0.000000 0.000000 -0.000000 0.000000 0.000000 -0.000000 0.000000 0.000000 -0.000000 0.000000 0.000000 -0.000000 0.000000 0.000000 -0.000000 0.000000 0.000000 -0.000000 0.000000 0.000000 -0.000000 0.000000 0.000000 -0.000000 0.000000 0.000000 -0.000000 0.000000 0.000000 -0.000000 0.000000 0.000000 -0.000000 0.000000 0.000000 -0.000000 0.000000 0.000000 -0.000000 0.000000 0.000000 -0.000000 0.000000 0.000000 -0.000000 0.000000 0.000000 -0.000000 0.000000 0.000000 -0.000000 0.000000 0.000000 -0.000000 0.000000 0.000000 -0.000000 -6.221668 -11.503854 -4.023829 -23.062173 9.568543 -36.639600 0.046097 -43.169128 -0.011191 22.743748 -5.685875 15.979282 -1.064241 -7.954899 8.490090 2.373401 19.986107 -2.038337 -0.000001 0.000001 -0.000001 13.340874 -1.006637 10.682271 -0.167587 0.303344 -31.105634 -0.000001 -0.000000 -0.000001 8.495445 -0.329550 -0.915300 0.231513 0.661192 -29.901875 -0.000000 0.000000 0.000000 6.111748 3.150920 -16.210962 0.047067 0.322414 -30.125478 0.000001 -0.000000 0.000000 -5.636036 7.709856 -13.878608 0.224381 0.276578 -46.588379 -0.000002 -0.000000 0.000002 -0.000001 0.000001 -0.000000 -5.488234 10.658255 2.466537 -41.473810 -26.755586 30.079088 24.955462 111.863015 -23.308456 -8.702507 12.423036 -9.801971 0.265018 10.061118 -10.888485 1.383810 -17.412876 3.016285 -0.000002 -0.000000 0.000001 19.443609 11.174421 -13.340198 -0.118661 -0.322720 18.035598 -0.000002 0.000002 0.000000 4.320488 2.436939 -4.811723 0.349138 -0.461243 26.890334 -0.000002 0.000002 -0.000001 -7.005634 -10.695125 5.719833 0.111875 -0.089216 26.155894 -0.000002 -0.000001 -0.000001 -19.433507 -20.238201 5.987863 0.223780 -0.085804 36.844561 0.000000 -0.000001 0.000001 0.000000 0.000003 0.000001 0.000001 0.000001 -0.000000 0.000001 0.000001 -0.000000 0.000001 0.000001 -0.000000 0.000001 0.000001 -0.000000 0.000001 0.000001 -0.000000 0.000001 0.000001 0.000000 -0.000000 -0.000001 0.000001 -0.000000 -0.000001 0.000001 -0.000000 -0.000003 0.000001 0.000000 0.000003 -0.000000 
-2.501609 76.987259 1.039711 3.077435 -58.279067 6.506194 0.000000 0.000002 0.000000 -31.768805 10.624980 25.366237 44.489950 -9.004378 -10.016443 -14.569277 -2.351900 -8.947230 -0.000000 0.000001 0.000000 -0.000000 0.000001 -0.000000 -0.000000 -0.000000 0.000001 -29.478946 -9.289593 -26.676202 50.835148 3.434122 -7.880224 -25.340190 1.417011 21.885835 0.000000 -0.000001 0.000000 -0.000000 0.000001 -0.000002 0.000005 -0.000000 0.000002 11.114193 0.124712 -2.668598 8.281119 0.065561 -5.543475 8.303565 0.065716 -5.543009 -21.313520 24.821468 11.931888 -0.501504 25.223305 -3.073465 0.000000 -0.000001 -0.000000 0.000000 -0.000001 -0.000000 0.000000 -0.000001 -0.000000 0.000000 -0.000001 -0.000000 0.000000 -0.000001 -0.000000 0.000000 -0.000001 -0.000000 0.000000 -0.000001 -0.000000 0.000000 -0.000001 -0.000000 0.000000 -0.000001 -0.000000 0.000000 -0.000001 -0.000000 0.000000 -0.000001 -0.000000 0.000000 -0.000001 -0.000000 0.000000 -0.000001 -0.000000 0.000000 -0.000001 -0.000000 0.000000 -0.000001 -0.000000 0.000000 -0.000001 -0.000000 0.000000 -0.000001 -0.000000 0.000000 -0.000001 -0.000000 0.000000 -0.000001 -0.000000 -5.888015 -11.348862 -4.111612 -23.088840 9.805529 -36.732088 -0.223619 -43.320352 -0.178085 22.774829 -5.786694 15.762774 -1.013352 -7.979049 8.385264 2.373227 19.985738 -2.038476 -0.000002 0.000001 -0.000001 13.392779 -0.857330 10.369724 -0.168836 0.304153 -31.279152 -0.000001 -0.000002 -0.000002 8.501717 -0.177918 -1.121788 0.233293 0.661425 -30.053652 -0.000001 0.000002 0.000001 6.115918 3.344604 -16.345864 0.048433 0.323120 -30.253039 -0.000001 0.000001 0.000000 -5.669056 7.954078 -13.849595 0.224916 0.276659 -46.648747 -0.000000 0.000000 0.000000 0.000002 0.000002 -0.000000 -5.146264 10.690695 2.467581 -41.573732 -27.076232 29.890066 27.927843 112.638343 -26.280036 -8.524161 12.683884 -9.630399 0.058322 10.763355 -10.139033 1.383866 -17.413052 3.016231 -0.000001 0.000001 -0.000001 19.385101 11.008844 -11.664734 -0.125429 -0.326332 19.069065 -0.000001 0.000000 -0.000000 4.347760 1.811603 -3.663108 0.356057 -0.461058 27.691726 0.000002 -0.000000 -0.000000 -6.837608 -11.512215 6.465778 0.115969 -0.091570 26.770266 -0.000000 0.000000 -0.000003 -19.227280 -20.531318 6.567950 0.226162 -0.086327 37.287314 -0.000004 -0.000001 0.000002 -0.000004 -0.000004 -0.000003 -0.000000 0.000000 0.000001 -0.000000 0.000000 0.000001 -0.000000 0.000000 0.000001 -0.000000 0.000000 0.000001 -0.000000 0.000000 0.000001 -0.000000 -0.000000 0.000001 -0.000003 -0.000000 -0.000000 -0.000003 -0.000000 -0.000000 -0.000000 0.000000 -0.000000 0.000000 0.000002 0.000000 
-2.519818 76.981712 1.083442 3.143053 -58.321961 6.539552 0.000000 -0.000001 -0.000001 -31.827432 10.541647 25.346945 44.670858 -8.921597 -9.970951 -14.601910 -2.342968 -8.966840 -0.000000 -0.000002 -0.000000 -0.000001 -0.000002 0.000001 -0.000001 0.000001 -0.000000 -29.448309 -9.169169 -26.570068 50.830377 3.310165 -7.951411 -25.277921 1.394713 21.983124 0.000000 0.000001 -0.000000 0.000000 0.000001 0.000001 -0.000001 -0.000000 -0.000000 11.105006 0.137888 -2.655173 8.263424 0.094343 -5.514617 8.285895 0.094484 -5.514155 -21.429172 24.538184 11.838499 -0.484133 24.969440 -3.032918 0.000000 0.000000 -0.000000 0.000000 0.000000 -0.000000 0.000000 0.000000 -0.000000 0.000000 0.000000 -0.000000 0.000000 0.000000 -0.000000 0.000000 0.000000 -0.000000 0.000000 0.000000 -0.000000 0.000000 0.000000 -0.000000 0.000000 0.000000 -0.000000 0.000000 0.000000 -0.000000 0.000000 0.000000 -0.000000 0.000000 0.000000 -0.000000 0.000000 0.000000 -0.000000 0.000000 0.000000 -0.000000 0.000000 0.000000 -0.000000 0.000000 0.000000 -0.000000 0.000000 0.000000 -0.000000 0.000000 0.000000 -0.000000 0.000000 0.000000 -0.000000 -5.880225 -11.203445 -4.136705 -23.070911 10.188983 -36.902546 -0.778816 -43.644017 -0.618970 22.885915 -5.874747 15.640312 -0.936055 -7.901290 8.281057 2.381444 20.006181 -2.031160 -0.000000 0.000002 -0.000000 13.380400 -0.903467 10.415430 -0.168408 0.303861 -31.216273 -0.000002 0.000003 -0.000001 8.500998 -0.157121 -1.020050 0.232473 0.661318 -29.983550 -0.000002 -0.000003 -0.000004 6.103012 3.435160 -16.138193 0.047759 0.322738 -30.188845 0.000002 -0.000001 0.000004 -5.678014 8.064658 -13.509527 0.223973 0.276459 -46.546158 -0.000000 0.000000 -0.000001 0.000001 0.000002 -0.000001 -5.152140 10.691567 2.515987 -41.675342 -27.395453 29.700367 30.754966 113.473805 -29.096380 -7.964729 12.641107 -9.574785 -0.272424 11.449467 -9.779556 1.392579 -17.434087 3.008414 0.000000 -0.000002 0.000001 19.283205 11.017635 -10.724544 -0.128894 -0.328181 19.592148 0.000001 -0.000001 0.000003 4.335209 1.528086 -2.596400 0.361449 -0.460775 28.315642 0.000003 -0.000002 -0.000004 -6.574488 -12.132955 7.760416 0.121351 -0.094779 27.577519 0.000001 0.000000 0.000003 -18.816288 -22.102991 7.642805 0.231385 -0.087287 38.248875 0.000001 -0.000002 -0.000000 0.000000 -0.000004 -0.000002 0.000001 0.000003 -0.000002 0.000001 0.000003 -0.000002 0.000001 0.000003 -0.000002 0.000001 0.000003 -0.000002 0.000001 0.000003 -0.000002 0.000001 0.000003 -0.000001 -0.000002 0.000001 0.000001 -0.000002 0.000001 0.000001 0.000001 -0.000000 -0.000000 0.000000 -0.000001 -0.000001 
-2.538894 76.959869 1.133735 3.250542 -58.359090 6.617627 -0.000000 -0.000001 -0.000000 -31.938033 10.420608 25.305936 44.931293 -8.820098 -9.911194 -14.651355 -2.328282 -8.992706 0.000000 0.000001 -0.000000 0.000001 0.000002 0.000000 -0.000001 0.000001 -0.000001 -29.463944 -8.998882 -26.469908 50.894280 3.165134 -8.033266 -25.216695 1.364100 22.096087 -0.000000 0.000001 -0.000000 -0.000000 -0.000001 -0.000002 0.000004 0.000001 -0.000001 11.091298 0.154909 -2.640054 8.236895 0.130306 -5.482833 8.259354 0.130467 -5.482373 -21.566051 24.146860 11.698335 -0.461434 24.621507 -2.974632 -0.000000 0.000000 0.000001 -0.000000 0.000000 0.000001 -0.000000 0.000000 0.000001 -0.000000 0.000000 0.000001 -0.000000 0.000000 0.000001 -0.000000 0.000000 0.000001 -0.000000 0.000000 0.000001 -0.000000 0.000000 0.000001 -0.000000 0.000000 0.000001 -0.000000 0.000000 0.000001 -0.000000 0.000000 0.000001 -0.000000 0.000000 0.000001 -0.000000 0.000000 0.000001 -0.000000 0.000000 0.000001 -0.000000 0.000000 0.000001 -0.000000 0.000000 0.000001 -0.000000 0.000000 0.000001 -0.000000 0.000000 0.000001 -0.000000 0.000000 0.000001 -5.870535 -11.061411 -4.171693 -22.987241 10.659085 -37.048415 -1.551487 -44.072100 -1.371610 23.004904 -5.957698 15.638850 -0.867469 -7.784712 8.163936 2.371682 19.981942 -2.039801 0.000001 0.000002 -0.000001 13.356442 -0.993971 10.520310 -0.167652 0.303486 -31.113195 -0.000001 -0.000000 -0.000003 8.488154 -0.166991 -0.852466 0.231244 0.661075 -29.882935 -0.000001 -0.000002 -0.000002 6.084677 3.499138 -15.846326 0.046801 0.322360 -30.097427 0.000001 0.000000 0.000000 -5.685259 8.137442 -13.084714 0.222751 0.276386 -46.402386 -0.000001 -0.000000 -0.000000 -0.000000 0.000001 -0.000000 -5.178393 10.652659 2.668578 -41.781988 -27.790452 29.400751 35.112732 114.823430 -33.451381 -7.092269 12.745494 -9.489319 -0.610328 12.109775 -9.454126 1.382287 -17.409261 3.017634 0.000000 0.000002 -0.000002 19.197044 10.951337 -9.698056 -0.132395 -0.330092 20.134786 -0.000000 -0.000000 0.000001 4.354855 1.175960 -1.362054 0.367472 -0.460505 29.018981 0.000001 -0.000002 -0.000002 -6.208874 -12.853175 9.348196 0.127943 -0.098443 28.547274 -0.000004 -0.000002 -0.000001 -18.118842 -23.348834 9.489299 0.237872 -0.088326 39.442468 -0.000001 -0.000001 0.000001 0.000002 -0.000001 0.000003 -0.000000 0.000000 -0.000001 -0.000000 0.000000 -0.000001 -0.000000 0.000000 -0.000001 -0.000000 0.000000 -0.000001 -0.000000 0.000000 -0.000001 -0.000000 0.000000 -0.000001 -0.000000 0.000003 -0.000001 -0.000000 0.000003 -0.000001 0.000000 0.000002 -0.000001 -0.000000 -0.000001 -0.000000 
